<svg width="1883" height="1717" viewBox="0 0 1883 1717" fill="none" xmlns="http://www.w3.org/2000/svg">
<path d="M1319.52 0H484.578L643.201 261.487H1461.22L1049.61 979.258L1183.56 1212.84L1599.3 487.874L1319.52 0Z" fill="url(#paint0_linear_302_578)"/>
<path d="M139.887 852.111L557.36 1580.11L702.975 1311.06L293.964 597.82L1117.18 597.82L1251.13 364.237L419.661 364.237L139.887 852.111Z" fill="url(#paint1_linear_302_578)"/>
<path d="M1465.53 1473.06L1883 745.067L1578.76 752.627L1169.75 1465.87L758.142 748.096L490.244 748.096L905.979 1473.06L1465.53 1473.06Z" fill="url(#paint2_linear_302_578)"/>
<defs>
<linearGradient id="paint0_linear_302_578" x1="548.556" y1="535.528" x2="1568.11" y2="544.977" gradientUnits="userSpaceOnUse">
<stop stop-color="#6293E9"/>
<stop offset="0.315399" stop-color="#5D58D3"/>
<stop offset="0.75" stop-color="#820AAF"/>
<stop offset="1" stop-color="#D01BF1"/>
</linearGradient>
<linearGradient id="paint1_linear_302_578" x1="986.023" y1="1256.56" x2="479.319" y2="365.754" gradientUnits="userSpaceOnUse">
<stop stop-color="#6293E9"/>
<stop offset="0.315399" stop-color="#5D58D3"/>
<stop offset="0.75" stop-color="#820AAF"/>
<stop offset="1" stop-color="#D01BF1"/>
</linearGradient>
<linearGradient id="paint2_linear_302_578" x1="1390.36" y1="533.085" x2="867.125" y2="1414.15" gradientUnits="userSpaceOnUse">
<stop stop-color="#6293E9"/>
<stop offset="0.315399" stop-color="#5D58D3"/>
<stop offset="0.75" stop-color="#820AAF"/>
<stop offset="1" stop-color="#D01BF1"/>
</linearGradient>
</defs>
</svg>